#!OML:ASF F:\VICON\USERDATA\INSTALL\rory3\rory3.ASF
:FULLY-SPECIFIED
:DEGREES
1091
root -2.82521 17.7383 4.36072 170.156 85.4748 -560.644
lowerback 8.12339 0.571405 -3.10221
upperback 3.82952 0.678779 1.7974
thorax -0.642996 0.341364 3.54439
lowerneck -15.2391 2.40425 -5.05011
upperneck 38.8687 8.99902 -3.41024
head 16.6277 3.08667 1.1966
rclavicle 9.93923e-016 -4.77083e-015
rhumerus -30.7402 -4.13604 -79.8443
rradius 44.6564
rwrist 16.6654
rhand -25.205 5.02167
rfingers 7.12502
rthumb 1.31357 -24.954
lclavicle 9.93923e-016 -4.77083e-015
lhumerus -16.3791 -1.42793 78.8097
lradius 32.2695
lwrist -36.7548
lhand -32.9242 33.6899
lfingers 7.12502
lthumb -6.14106 63.5809
rfemur -32.9631 -9.09981 32.7125
rtibia 22.8419
rfoot -0.484872 -3.32952
rtoes 24.7981
lfemur -32.4174 8.45409 -27.2459
ltibia 66.8907
lfoot 4.8657 -9.1216
ltoes -15.1015
1092
root -2.79869 17.7607 4.33521 169.176 86.0263 -561.744
lowerback 8.30896 0.666865 -3.11491
upperback 3.90434 0.802584 1.75548
thorax -0.677798 0.404275 3.49619
lowerneck -15.3126 2.4177 -4.97195
upperneck 38.837 8.914 -3.27873
head 16.6187 3.07246 1.22452
rclavicle -1.66979e-014 3.18055e-015
rhumerus -30.6327 -4.06827 -80.0772
rradius 44.7961
rwrist 16.5582
rhand -25.5045 4.86625
rfingers 7.12502
rthumb 1.02433 -25.111
lclavicle -1.66979e-014 3.18055e-015
lhumerus -16.1235 -1.84709 78.589
lradius 31.8718
lwrist -37.1639
lhand -32.3395 33.2088
lfingers 7.12502
lthumb -5.57651 63.1154
rfemur -32.5798 -8.95631 32.8031
rtibia 22.118
rfoot -0.0491385 -3.0105
rtoes 25.2515
lfemur -34.3443 8.1514 -27.0388
ltibia 69.6691
lfoot 4.72167 -8.81796
ltoes -14.4003
1093
root -2.77706 17.8013 4.30808 169.434 86.4547 -561.667
lowerback 8.46567 0.7209 -2.98003
upperback 3.96915 0.883275 1.72487
thorax -0.701961 0.447143 3.37985
lowerneck -15.4482 2.40398 -4.92502
upperneck 38.8065 8.80626 -3.15713
head 16.626 3.04076 1.25153
rclavicle -1.61016e-014 -2.74323e-014
rhumerus -30.5311 -4.02486 -80.2411
rradius 45.0319
rwrist 16.4119
rhand -25.374 4.98845
rfingers 7.12502
rthumb 1.15034 -24.9882
lclavicle -1.61016e-014 -2.74323e-014
lhumerus -15.8199 -2.12154 78.3443
lradius 31.4648
lwrist -37.6262
lhand -31.9897 33.4508
lfingers 7.12502
lthumb -5.23876 63.366
rfemur -32.3183 -8.92627 32.952
rtibia 21.4855
rfoot 0.436944 -2.65256
rtoes 24.956
lfemur -36.3319 7.9386 -26.7363
ltibia 72.4532
lfoot 4.21946 -8.40856
ltoes -14.6287
1094
root -2.75749 17.8042 4.27505 172.272 86.7724 -559.348
lowerback 8.25741 0.665021 -2.70154
upperback 3.92467 0.831302 1.74126
thorax -0.626905 0.422039 3.24553
lowerneck -15.455 2.43907 -4.98664
upperneck 38.682 8.77583 -3.02169
head 16.545 3.03481 1.31036
rclavicle -1.76918e-014 -1.39149e-014
rhumerus -30.4291 -3.70638 -80.4177
rradius 45.2498
rwrist 16.4744
rhand -25.1482 5.16696
rfingers 7.12502
rthumb 1.36846 -24.8084
lclavicle -1.76918e-014 -1.39149e-014
lhumerus -15.5917 -2.20749 78.1195
lradius 31.0535
lwrist -38.0292
lhand -31.5291 33.5141
lfingers 7.12502
lthumb -4.79406 63.4398
rfemur -32.3583 -8.91367 33.2785
rtibia 20.501
rfoot 1.15277 -2.45647
rtoes 24.4274
lfemur -38.9202 7.45509 -26.4127
ltibia 75.3889
lfoot 3.71793 -7.67557
ltoes -15.392
1095
root -2.7356 17.808 4.24246 173.028 87.1242 -558.781
lowerback 8.37308 0.613086 -2.57581
upperback 3.97832 0.771945 1.73003
thorax -0.629316 0.394398 3.16749
lowerneck -15.3798 2.523 -4.97781
upperneck 38.5104 8.81607 -2.96566
head 16.4287 3.06157 1.3312
rclavicle -4.37326e-015 5.56597e-015
rhumerus -30.2696 -3.16888 -80.691
rradius 45.4517
rwrist 16.5069
rhand -25.2301 4.88667
rfingers 7.12502
rthumb 1.28932 -25.0892
lclavicle -4.37326e-015 5.56597e-015
lhumerus -15.363 -2.45516 77.8752
lradius 30.6234
lwrist -38.1277
lhand -31.2314 33.4523
lfingers 7.12502
lthumb -4.50657 63.3843
rfemur -32.0614 -9.02849 33.472
rtibia 19.5811
rfoot 1.79078 -2.22368
rtoes 24.4775
lfemur -41.1676 7.45522 -26.1792
ltibia 78.3624
lfoot 3.00057 -6.86402
ltoes -16.4834
1096
root -2.71668 17.8674 4.21405 170.719 87.5546 -561.149
lowerback 8.60166 0.591359 -2.58502
upperback 4.07831 0.742043 1.67445
thorax -0.648711 0.380863 3.11664
lowerneck -15.3676 2.6196 -4.7296
upperneck 38.3921 8.9458 -3.21539
head 16.3946 3.1143 1.19923
rclavicle 7.95139e-016 3.97569e-016
rhumerus -30.0972 -2.70763 -80.9934
rradius 45.6818
rwrist 16.328
rhand -25.1775 4.81987
rfingers 7.12502
rthumb 1.34016 -25.1557
lclavicle 7.95139e-016 3.97569e-016
lhumerus -15.1669 -2.52653 77.5675
lradius 30.2363
lwrist -38.2673
lhand -31.0524 33.5408
lfingers 7.12502
lthumb -4.33377 63.4764
rfemur -31.6843 -9.00824 33.4442
rtibia 18.9979
rfoot 2.10758 -1.98908
rtoes 24.5432
lfemur -43.0038 6.56577 -25.9383
ltibia 81.1509
lfoot 2.33945 -5.15923
ltoes -16.6331
1097
root -2.69983 17.8772 4.18278 170.325 87.8947 -561.717
lowerback 8.75562 0.534276 -2.48488
upperback 4.13042 0.672965 1.61827
thorax -0.673081 0.348885 3.00739
lowerneck -15.318 2.72149 -4.50433
upperneck 38.2422 9.05686 -3.40719
head 16.3292 3.16614 1.09114
rclavicle 2.5842e-015 2.42517e-014
rhumerus -29.9045 -2.5223 -81.2674
rradius 45.8817
rwrist 16.3743
rhand -24.8321 5.30416
rfingers 7.12502
rthumb 1.67371 -24.669
lclavicle 2.5842e-015 2.42517e-014
lhumerus -14.9258 -2.26253 77.2388
lradius 29.7608
lwrist -38.6054
lhand -30.9424 33.6669
lfingers 7.12502
lthumb -4.2275 63.6047
rfemur -31.5324 -8.79389 33.4499
rtibia 18.4979
rfoot 2.43625 -1.99253
rtoes 24.4893
lfemur -45.3102 6.5888 -25.6865
ltibia 84.1915
lfoot 1.75805 -4.41858
ltoes -16.6449
1098
root -2.68063 17.8677 4.14629 171.135 88.2612 -561.036
lowerback 8.88606 0.485797 -2.31219
upperback 4.20034 0.623221 1.59882
thorax -0.667566 0.326892 2.8939
lowerneck -15.165 2.81022 -4.49306
upperneck 38.0068 9.11396 -3.41178
head 16.1682 3.19755 1.08525
rclavicle -3.18055e-015 -2.38542e-015
rhumerus -29.7411 -2.30766 -81.4643
rradius 46.064
rwrist 16.7095
rhand -24.6746 5.68669
rfingers 7.12502
rthumb 1.82587 -24.2852
lclavicle -3.18055e-015 -2.38542e-015
lhumerus -14.7362 -2.34077 77.0105
lradius 29.3004
lwrist -38.6093
lhand -30.7815 34.1208
lfingers 7.12502
lthumb -4.07211 64.0616
rfemur -31.2231 -8.51211 33.4519
rtibia 17.7656
rfoot 2.90381 -2.13516
rtoes 25.1758
lfemur -47.734 7.25185 -25.4361
ltibia 87.2945
lfoot 1.28225 -4.20428
ltoes -15.0762
1099
root -2.66342 17.8714 4.11173 169.911 88.661 -562.265
lowerback 9.10401 0.451391 -2.2002
upperback 4.33768 0.59053 1.61037
thorax -0.642066 0.313024 2.84523
lowerneck -15.0841 2.89834 -4.59513
upperneck 37.822 9.22946 -3.42493
head 16.049 3.23279 1.10894
rclavicle -1.0138e-014 -2.34566e-014
rhumerus -29.5338 -1.97013 -81.6298
rradius 46.2474
rwrist 17.0666
rhand -24.7685 5.63541
rfingers 7.12502
rthumb 1.73514 -24.3373
lclavicle -1.0138e-014 -2.34566e-014
lhumerus -14.5229 -2.34372 76.8781
lradius 28.9073
lwrist -38.54
lhand -30.5563 34.6924
lfingers 7.12502
lthumb -3.8547 64.6373
rfemur -30.8775 -8.22003 33.3855
rtibia 17.2948
rfoot 3.16094 -2.17407
rtoes 25.3657
lfemur -49.9699 7.74533 -25.2335
ltibia 90.2905
lfoot 0.838667 -3.93783
ltoes -12.7862
1100
root -2.65323 17.8969 4.08141 176.172 88.9846 -556.022
lowerback 9.41392 0.448969 -1.89928
upperback 4.4279 0.613764 1.59443
thorax -0.718042 0.331462 2.65527
lowerneck -15.1015 2.90739 -4.58704
upperneck 37.8427 9.21099 -3.36167
head 16.0581 3.22986 1.13106
rclavicle -7.55382e-015 -9.54166e-015
rhumerus -29.4306 -1.72706 -81.8091
rradius 46.5027
rwrist 17.0854
rhand -24.7635 5.74099
rfingers 7.12502
rthumb 1.73995 -24.2317
lclavicle -7.55382e-015 -9.54166e-015
lhumerus -14.1629 -2.1069 76.6671
lradius 28.4165
lwrist -38.7496
lhand -30.3591 34.0505
lfingers 7.12502
lthumb -3.66429 63.9987
rfemur -30.5256 -7.99056 33.4661
rtibia 16.7405
rfoot 3.37629 -2.28635
rtoes 25.4953
lfemur -52.1221 7.7403 -25.0186
ltibia 93.0489
lfoot 0.263533 -3.3964
ltoes -14.5288
1101
root -2.64365 17.9177 4.04647 190.668 89.2584 -541.522
lowerback 9.75666 0.442052 -1.49882
upperback 4.50804 0.641179 1.56845
thorax -0.821275 0.353758 2.39793
lowerneck -15.0501 2.92208 -4.49942
upperneck 37.8408 9.19039 -3.35203
head 16.047 3.23378 1.11384
rclavicle 7.55382e-015 3.57812e-014
rhumerus -29.3886 -1.49637 -81.9852
rradius 46.8192
rwrist 16.8157
rhand -24.8543 6.06144
rfingers 7.12502
rthumb 1.65229 -23.9119
lclavicle 7.55382e-015 3.57812e-014
lhumerus -13.8704 -2.22828 76.4293
lradius 28.0796
lwrist -38.5494
lhand -29.9443 33.4473
lfingers 7.12502
lthumb -3.26365 63.4021
rfemur -30.0814 -7.98121 33.6442
rtibia 15.9745
rfoot 3.80601 -2.28524
rtoes 25.5634
lfemur -54.329 7.73246 -24.7928
ltibia 95.785
lfoot -0.298175 -2.85778
ltoes -16.3764
1102
root -2.63134 17.9413 4.00946 164.82 89.5394 -567.336
lowerback 10.0047 0.383011 -1.54848
upperback 4.63501 0.560857 1.45727
thorax -0.820215 0.315775 2.31838
lowerneck -14.9176 3.01514 -4.49491
upperneck 37.699 9.33126 -3.46337
head 15.952 3.28336 1.08164
rclavicle -4.77083e-015 -1.03368e-014
rhumerus -29.3508 -1.14552 -82.2075
rradius 47.1716
rwrist 16.9219
rhand -25.1224 5.95087
rfingers 7.12502
rthumb 1.39336 -24.0243
lclavicle -4.77083e-015 -1.03368e-014
lhumerus -13.7139 -2.39203 76.2462
lradius 27.8901
lwrist -38.0793
lhand -29.4722 33.3697
lfingers 7.12502
lthumb -2.80775 63.331
rfemur -29.5398 -8.14376 33.3509
rtibia 15.0398
rfoot 4.47473 -2.20547
rtoes 25.7778
lfemur -56.4233 7.65535 -25.002
ltibia 98.4277
lfoot -0.972158 -2.55472
ltoes -15.9307
1103
root -2.61899 17.9621 3.97525 99.8046 89.54 -632.31
lowerback 10.2279 0.376208 -1.73113
upperback 4.77641 0.537742 1.34064
thorax -0.793974 0.304292 2.30253
lowerneck -14.7744 3.09753 -4.49461
upperneck 37.5486 9.45684 -3.57894
head 15.851 3.3267 1.04536
rclavicle -1.19271e-014 -2.22639e-014
rhumerus -29.3408 -0.770797 -82.4156
rradius 47.5566
rwrist 17.3211
rhand -25.6012 5.28073
rfingers 7.12502
rthumb 0.930904 -24.697
lclavicle -1.19271e-014 -2.22639e-014
lhumerus -13.4503 -1.9624 76.136
lradius 27.5389
lwrist -38.2393
lhand -29.264 33.4367
lfingers 7.12502
lthumb -2.60665 63.4005
rfemur -29.0621 -8.07104 32.9301
rtibia 14.3078
rfoot 4.94814 -2.2144
rtoes 26.1253
lfemur -58.5023 7.8275 -25.2872
ltibia 100.969
lfoot -1.80992 -2.58131
ltoes -15.3878
1104
root -2.61607 17.9759 3.93802 44.3612 89.2313 -687.797
lowerback 10.5283 0.457228 -1.68226
upperback 4.8925 0.651355 1.28385
thorax -0.842209 0.364497 2.20251
lowerneck -14.7808 3.16116 -4.60284
upperneck 37.4548 9.54792 -3.55459
head 15.7975 3.35138 1.08651
rclavicle 9.93923e-016 1.59028e-015
rhumerus -29.2226 -0.459708 -82.58
rradius 47.925
rwrist 17.5376
rhand -25.853 4.86322
rfingers 7.12502
rthumb 0.687716 -25.1154
lclavicle 9.93923e-016 1.59028e-015
lhumerus -13.1057 -1.44413 76.0213
lradius 27.2005
lwrist -38.4009
lhand -29.1777 33.7506
lfingers 7.12502
lthumb -2.52328 63.7154
rfemur -28.7317 -7.49713 32.7541
rtibia 13.6976
rfoot 5.30184 -2.39012
rtoes 26.0603
lfemur -60.8578 8.36436 -25.3032
ltibia 103.481
lfoot -2.58132 -2.55056
ltoes -13.3616
